<svg  fill="#fff" xmlns="http://www.w3.org/2000/svg" width="64.5" height="64.5">
    <path stroke="#fff" stroke-width="3" fill="none" d="M59.434 31.969 32.222 59.14c-1.029 1.23-2.3 1.533-3.629 1.785a6.979 6.979 0 0 1-2.843.579l-16.968-.155c-3.905-.036-7.099-3.211-7.135-7.091l-.156-16.864c-.02-2.231 1.027-4.185 2.646-5.457.129-.152.234-.317.378-.46L31.727 4.432c2.733-2.716 7.163-2.716 9.895 0l17.812 17.702a6.924 6.924 0 0 1 0 9.835zM18.327 44.265a4.92 4.92 0 0 0-6.927 0 4.846 4.846 0 0 0 0 6.884c1.913 2.351 5.014 2.351 6.927 0a4.846 4.846 0 0 0 0-6.884z"/>
</svg>
